<svg xmlns="http://www.w3.org/2000/svg" style="background: transparent; background-color: transparent;" xmlns:xlink="http://www.w3.org/1999/xlink" version="1.1" width="1102px" height="922px" viewBox="-0.5 -0.5 1102 922" content="&lt;mxfile scale=&quot;4&quot; border=&quot;0&quot;&gt;&lt;diagram id=&quot;Gn5Gzo-UKO-eQpM08fny&quot; name=&quot;Page-1&quot;&gt;7Zpdb5swFIZ/TaTtYhUfIQmXTdp1F5tUKRe7nFzsgjWDke189dfPBgPBOA2rSKaW3SRwMAf8Psc2L8nEX6X7Bwby5AeFiEw8B+4n/t3E8/zAl58qcCgD82lYBmKGYRlym8AavyAddHR0gyHirYaCUiJw3g5GNMtQJFoxwBjdtZs9U9K+ag5i1AmsI0C60Z8YiqSMLrx5E/+GcJxUV3Znun8pqBrrFDwBkO7KUNE5/37irxilotxK9ytElHaVLqUCX08crW+MoUz0OcErT9gCstF90/clDlVnc4ozgdj9VqZUurkTf7lFTGCpx3fwhMgj5VhgmsljT1QImsoGdb8cuQMBTxDUO4DgWDWNkMoqA4lIiZH2VrcRNC9z5epe0n2squkGEcmUqXY3DHHMBWW83volJVwyKoC+o1Bds6uKFkpdEO2PQlqlB0RTJNhBNtFH57r0DlUl6v1dw7+OJUfstf4O0CUX15kbKnJDg7FD8s9DYnSTwVrjXYIFWucgUkd3UrS2zM+YkLU+N2KU8y8JEFEyjFCLtlDTrk7z4DIyTf/Xcj9E9TxaFbNnKebphYo5eE/FXJfv9at5dl6nqpieCdrfqmVNdhplUG/eRQRwjqO2XCdFQbC15nUlOepzYKmNKsYQkfW6ba+UNiH0FR7VkGwUd42JNjSk5HTDIqRPOl7YjDye/3oeAViMRCdPQaXudC9Q8/Og3juUOo8Wc/ZWKEaeejwNT2Xx8amEw0AJr8Yk/CsmGc3Q8YLrvms6rhPeBG8DVC/Pp1MNx6h6NBgnJG84SN1UA0JyxwTJXDVc8/Gq9/KzOJNoQEI9jPUHJhQMRchMNCAhm6uWFnJ6KL86uKRlEG0sHftner4UQ6hOXypH9wKeilTK0xQ+tOhSsJwEdyrXRkjrWbzoUqm5YPQ3WlFCWVMeyuoYoZOV0d/jGBYn1LPWUeXMLJXjO6eLpK/FcW2OXWkPR87Ada8IwWbIC/GDFco5JjT7JBMu4eGz/Cy3RkbHNd+XWF4DuBfjY3sRYPLRaMZFZWYOGgsV71JUbK5/jKuHAcH2huxiI8Pm8cfIwPP+IYRRmXrT5c3f6BbD19MM95TrjcspLobBY/qZC/Kx+UQ1eTkjm8OMJ+DZ9WYw68+rY0TgOddiIHebvziUo6b5n4h//wc=&lt;/diagram&gt;&lt;/mxfile&gt;"><defs><pattern patternUnits="userSpaceOnUse" width="108" height="108" x="0" y="0" patternTransform="rotate(45)" id="mx-pattern-cross-hatch-4-000000-0"><rect x="0" y="0" width="108" height="108" stroke="#ffffff" stroke-width="8" fill="none" style="stroke: light-dark(#ffffff, var(--ge-dark-color, #121212));"/></pattern><style xmlns="http://www.w3.org/1999/xhtml" id="MJX-SVG-styles">
mjx-container[jax="SVG"] {
  direction: ltr;
}

mjx-container[jax="SVG"] &gt; svg {
  overflow: visible;
  min-height: 1px;
  min-width: 1px;
}

mjx-container[jax="SVG"] &gt; svg a {
  fill: blue;
  stroke: blue;
}

mjx-container[jax="SVG"][display="true"] {
  display: block;
  text-align: center;
  margin: 1em 0;
}

mjx-container[jax="SVG"][display="true"][width="full"] {
  display: flex;
}

mjx-container[jax="SVG"][justify="left"] {
  text-align: left;
}

mjx-container[jax="SVG"][justify="right"] {
  text-align: right;
}

g[data-mml-node="merror"] &gt; g {
  fill: red;
  stroke: red;
}

g[data-mml-node="merror"] &gt; rect[data-background] {
  fill: yellow;
  stroke: none;
}

g[data-mml-node="mtable"] &gt; line[data-line], svg[data-table] &gt; g &gt; line[data-line] {
  stroke-width: 70px;
  fill: none;
}

g[data-mml-node="mtable"] &gt; rect[data-frame], svg[data-table] &gt; g &gt; rect[data-frame] {
  stroke-width: 70px;
  fill: none;
}

g[data-mml-node="mtable"] &gt; .mjx-dashed, svg[data-table] &gt; g &gt; .mjx-dashed {
  stroke-dasharray: 140;
}

g[data-mml-node="mtable"] &gt; .mjx-dotted, svg[data-table] &gt; g &gt; .mjx-dotted {
  stroke-linecap: round;
  stroke-dasharray: 0,140;
}

g[data-mml-node="mtable"] &gt; g &gt; svg {
  overflow: visible;
}

[jax="SVG"] mjx-tool {
  display: inline-block;
  position: relative;
  width: 0;
  height: 0;
}

[jax="SVG"] mjx-tool &gt; mjx-tip {
  position: absolute;
  top: 0;
  left: 0;
}

mjx-tool &gt; mjx-tip {
  display: inline-block;
  padding: .2em;
  border: 1px solid #888;
  font-size: 70%;
  background-color: #F8F8F8;
  color: black;
  box-shadow: 2px 2px 5px #AAAAAA;
}

g[data-mml-node="maction"][data-toggle] {
  cursor: pointer;
}

mjx-status {
  display: block;
  position: fixed;
  left: 1em;
  bottom: 1em;
  min-width: 25%;
  padding: .2em .4em;
  border: 1px solid #888;
  font-size: 90%;
  background-color: #F8F8F8;
  color: black;
}

foreignObject[data-mjx-xml] {
  font-family: initial;
  line-height: normal;
  overflow: visible;
}

mjx-container[jax="SVG"] path[data-c], mjx-container[jax="SVG"] use[data-c] {
  stroke-width: 3;
}
</style></defs><g><g><rect x="120" y="240" width="400" height="80" fill="none" stroke="none" transform="rotate(90,320,280)" pointer-events="all"/><path d="M 120 280 L 192 280 L 208 240 L 240 320 L 272 240 L 304 320 L 336 240 L 368 320 L 400 240 L 432 320 L 448 280 L 520 280" fill="none" stroke="#000000" stroke-width="4" stroke-miterlimit="10" transform="rotate(90,320,280)" pointer-events="all" style="stroke: light-dark(rgb(0, 0, 0), rgb(255, 255, 255));"/></g><g><rect x="160" y="0" width="300" height="80" fill="url(#mx-pattern-cross-hatch-4-000000-0)" stroke="#000000" stroke-width="4" pointer-events="all" style="stroke: light-dark(rgb(0, 0, 0), rgb(255, 255, 255));"/></g><g><rect x="680" y="320" width="560" height="80" fill="none" stroke="none" transform="rotate(90,960,360)" pointer-events="all"/><path d="M 680 360 L 780.8 360 L 803.2 320 L 848 400 L 892.8 320 L 937.6 400 L 982.4 320 L 1027.2 400 L 1072 320 L 1116.8 400 L 1139.2 360 L 1240 360" fill="none" stroke="#000000" stroke-width="4" stroke-miterlimit="10" transform="rotate(90,960,360)" pointer-events="all" style="stroke: light-dark(rgb(0, 0, 0), rgb(255, 255, 255));"/></g><g><rect x="800" y="0" width="300" height="80" fill="url(#mx-pattern-cross-hatch-4-000000-0)" stroke="#000000" stroke-width="4" pointer-events="all" style="stroke: light-dark(rgb(0, 0, 0), rgb(255, 255, 255));"/></g><g><path d="M 522 220 L 522 180 L 682 180 L 682 138 L 758 200 L 682 262 L 682 220 Z" fill="none" stroke="#000000" stroke-width="4" stroke-linejoin="round" stroke-miterlimit="10" pointer-events="all" style="stroke: light-dark(rgb(0, 0, 0), rgb(255, 255, 255));"/></g><g><path d="M 840 80 L 840 774.53" fill="none" stroke="#000000" stroke-width="4" stroke-miterlimit="10" pointer-events="stroke" style="stroke: light-dark(rgb(0, 0, 0), rgb(255, 255, 255));"/><path d="M 840 795.53 L 826 767.53 L 840 774.53 L 854 767.53 Z" fill="#000000" stroke="#000000" stroke-width="4" stroke-miterlimit="10" pointer-events="all" style="fill: light-dark(rgb(0, 0, 0), rgb(255, 255, 255)); stroke: light-dark(rgb(0, 0, 0), rgb(255, 255, 255));"/></g><g><path d="M 200 80 L 200 774.53" fill="none" stroke="#000000" stroke-width="4" stroke-miterlimit="10" pointer-events="stroke" style="stroke: light-dark(rgb(0, 0, 0), rgb(255, 255, 255));"/><path d="M 200 795.53 L 186 767.53 L 200 774.53 L 214 767.53 Z" fill="#000000" stroke="#000000" stroke-width="4" stroke-miterlimit="10" pointer-events="all" style="fill: light-dark(rgb(0, 0, 0), rgb(255, 255, 255)); stroke: light-dark(rgb(0, 0, 0), rgb(255, 255, 255));"/></g><g><path d="M 200 278 L 320 278" fill="none" stroke="#000000" stroke-width="4" stroke-miterlimit="10" stroke-dasharray="12 12" pointer-events="stroke" style="stroke: light-dark(rgb(0, 0, 0), rgb(255, 255, 255));"/></g><g><path d="M 200 358 L 320 358" fill="none" stroke="#000000" stroke-width="4" stroke-miterlimit="10" stroke-dasharray="12 12" pointer-events="stroke" style="stroke: light-dark(rgb(0, 0, 0), rgb(255, 255, 255));"/></g><g><path d="M 840 320 L 960 320" fill="none" stroke="#000000" stroke-width="4" stroke-miterlimit="10" stroke-dasharray="12 12" pointer-events="stroke" style="stroke: light-dark(rgb(0, 0, 0), rgb(255, 255, 255));"/></g><g><path d="M 840 440 L 960 440" fill="none" stroke="#000000" stroke-width="4" stroke-miterlimit="10" stroke-dasharray="12 12" pointer-events="stroke" style="stroke: light-dark(rgb(0, 0, 0), rgb(255, 255, 255));"/></g><g><rect x="0" y="220" width="240" height="120" fill="none" stroke="none" pointer-events="all"/></g><g><g transform="translate(-0.5 -0.5)scale(4)"><switch><foreignObject style="overflow: visible; text-align: left;" pointer-events="none" width="100%" height="100%" requiredFeatures="http://www.w3.org/TR/SVG11/feature#Extensibility"><div xmlns="http://www.w3.org/1999/xhtml" style="display: flex; align-items: unsafe center; justify-content: unsafe center; width: 1px; height: 1px; padding-top: 70px; margin-left: 30px;"><div style="box-sizing: border-box; font-size: 0; text-align: center; color: #000000; "><div style="display: inline-block; font-size: 12px; font-family: &quot;Helvetica&quot;; color: light-dark(#000000, #ffffff); line-height: 1.2; pointer-events: all; white-space: nowrap; "><mjx-container class="MathJax" jax="SVG" display="true"><svg xmlns="http://www.w3.org/2000/svg" width="1.109ex" height="1.464ex" role="img" focusable="false" viewBox="0 -442 490 647" xmlns:xlink="http://www.w3.org/1999/xlink" style="vertical-align: -0.464ex;"><defs><path id="MJX-17-TEX-I-1D466" d="M21 287Q21 301 36 335T84 406T158 442Q199 442 224 419T250 355Q248 336 247 334Q247 331 231 288T198 191T182 105Q182 62 196 45T238 27Q261 27 281 38T312 61T339 94Q339 95 344 114T358 173T377 247Q415 397 419 404Q432 431 462 431Q475 431 483 424T494 412T496 403Q496 390 447 193T391 -23Q363 -106 294 -155T156 -205Q111 -205 77 -183T43 -117Q43 -95 50 -80T69 -58T89 -48T106 -45Q150 -45 150 -87Q150 -107 138 -122T115 -142T102 -147L99 -148Q101 -153 118 -160T152 -167H160Q177 -167 186 -165Q219 -156 247 -127T290 -65T313 -9T321 21L315 17Q309 13 296 6T270 -6Q250 -11 231 -11Q185 -11 150 11T104 82Q103 89 103 113Q103 170 138 262T173 379Q173 380 173 381Q173 390 173 393T169 400T158 404H154Q131 404 112 385T82 344T65 302T57 280Q55 278 41 278H27Q21 284 21 287Z"/></defs><g stroke="currentColor" fill="currentColor" stroke-width="0" transform="scale(1,-1)"><g data-mml-node="math"><g data-mml-node="mi"><use data-c="1D466" xlink:href="#MJX-17-TEX-I-1D466"/></g></g></g></svg></mjx-container></div></div></div></foreignObject><text x="30" y="74" fill="light-dark(#000000, #ffffff)" font-family="&quot;Helvetica&quot;" font-size="12px" text-anchor="middle">$$y$$</text></switch></g></g><g><rect x="0" y="300" width="240" height="120" fill="none" stroke="none" pointer-events="all"/></g><g><g transform="translate(-0.5 -0.5)scale(4)"><switch><foreignObject style="overflow: visible; text-align: left;" pointer-events="none" width="100%" height="100%" requiredFeatures="http://www.w3.org/TR/SVG11/feature#Extensibility"><div xmlns="http://www.w3.org/1999/xhtml" style="display: flex; align-items: unsafe center; justify-content: unsafe center; width: 1px; height: 1px; padding-top: 90px; margin-left: 30px;"><div style="box-sizing: border-box; font-size: 0; text-align: center; color: #000000; "><div style="display: inline-block; font-size: 12px; font-family: &quot;Helvetica&quot;; color: light-dark(#000000, #ffffff); line-height: 1.2; pointer-events: all; white-space: nowrap; "><mjx-container class="MathJax" jax="SVG" display="true"><svg xmlns="http://www.w3.org/2000/svg" width="2.285ex" height="2.034ex" role="img" focusable="false" viewBox="0 -694 1010 899" xmlns:xlink="http://www.w3.org/1999/xlink" style="vertical-align: -0.464ex;"><defs><path id="MJX-18-TEX-I-1D451" d="M366 683Q367 683 438 688T511 694Q523 694 523 686Q523 679 450 384T375 83T374 68Q374 26 402 26Q411 27 422 35Q443 55 463 131Q469 151 473 152Q475 153 483 153H487H491Q506 153 506 145Q506 140 503 129Q490 79 473 48T445 8T417 -8Q409 -10 393 -10Q359 -10 336 5T306 36L300 51Q299 52 296 50Q294 48 292 46Q233 -10 172 -10Q117 -10 75 30T33 157Q33 205 53 255T101 341Q148 398 195 420T280 442Q336 442 364 400Q369 394 369 396Q370 400 396 505T424 616Q424 629 417 632T378 637H357Q351 643 351 645T353 664Q358 683 366 683ZM352 326Q329 405 277 405Q242 405 210 374T160 293Q131 214 119 129Q119 126 119 118T118 106Q118 61 136 44T179 26Q233 26 290 98L298 109L352 326Z"/><path id="MJX-18-TEX-I-1D466" d="M21 287Q21 301 36 335T84 406T158 442Q199 442 224 419T250 355Q248 336 247 334Q247 331 231 288T198 191T182 105Q182 62 196 45T238 27Q261 27 281 38T312 61T339 94Q339 95 344 114T358 173T377 247Q415 397 419 404Q432 431 462 431Q475 431 483 424T494 412T496 403Q496 390 447 193T391 -23Q363 -106 294 -155T156 -205Q111 -205 77 -183T43 -117Q43 -95 50 -80T69 -58T89 -48T106 -45Q150 -45 150 -87Q150 -107 138 -122T115 -142T102 -147L99 -148Q101 -153 118 -160T152 -167H160Q177 -167 186 -165Q219 -156 247 -127T290 -65T313 -9T321 21L315 17Q309 13 296 6T270 -6Q250 -11 231 -11Q185 -11 150 11T104 82Q103 89 103 113Q103 170 138 262T173 379Q173 380 173 381Q173 390 173 393T169 400T158 404H154Q131 404 112 385T82 344T65 302T57 280Q55 278 41 278H27Q21 284 21 287Z"/></defs><g stroke="currentColor" fill="currentColor" stroke-width="0" transform="scale(1,-1)"><g data-mml-node="math"><g data-mml-node="mi"><use data-c="1D451" xlink:href="#MJX-18-TEX-I-1D451"/></g><g data-mml-node="mi" transform="translate(520,0)"><use data-c="1D466" xlink:href="#MJX-18-TEX-I-1D466"/></g></g></g></svg></mjx-container></div></div></div></foreignObject><text x="30" y="94" fill="light-dark(#000000, #ffffff)" font-family="&quot;Helvetica&quot;" font-size="12px" text-anchor="middle">$$dy$$</text></switch></g></g><g><rect x="280" y="400" width="640" height="120" fill="none" stroke="none" pointer-events="all"/></g><g><g transform="translate(-0.5 -0.5)scale(4)"><switch><foreignObject style="overflow: visible; text-align: left;" pointer-events="none" width="100%" height="100%" requiredFeatures="http://www.w3.org/TR/SVG11/feature#Extensibility"><div xmlns="http://www.w3.org/1999/xhtml" style="display: flex; align-items: unsafe center; justify-content: unsafe center; width: 1px; height: 1px; padding-top: 115px; margin-left: 150px;"><div style="box-sizing: border-box; font-size: 0; text-align: center; color: #000000; "><div style="display: inline-block; font-size: 12px; font-family: &quot;Helvetica&quot;; color: light-dark(#000000, #ffffff); line-height: 1.2; pointer-events: all; white-space: nowrap; "><mjx-container class="MathJax" jax="SVG" display="true"><svg xmlns="http://www.w3.org/2000/svg" width="17.763ex" height="2.262ex" role="img" focusable="false" viewBox="0 -750 7851.3 1000" xmlns:xlink="http://www.w3.org/1999/xlink" style="vertical-align: -0.566ex;"><defs><path id="MJX-19-TEX-I-1D716" d="M227 -11Q149 -11 95 41T40 174Q40 262 87 322Q121 367 173 396T287 430Q289 431 329 431H367Q382 426 382 411Q382 385 341 385H325H312Q191 385 154 277L150 265H327Q340 256 340 246Q340 228 320 219H138V217Q128 187 128 143Q128 77 160 52T231 26Q258 26 284 36T326 57T343 68Q350 68 354 58T358 39Q358 36 357 35Q354 31 337 21T289 0T227 -11Z"/><path id="MJX-19-TEX-N-28" d="M94 250Q94 319 104 381T127 488T164 576T202 643T244 695T277 729T302 750H315H319Q333 750 333 741Q333 738 316 720T275 667T226 581T184 443T167 250T184 58T225 -81T274 -167T316 -220T333 -241Q333 -250 318 -250H315H302L274 -226Q180 -141 137 -14T94 250Z"/><path id="MJX-19-TEX-I-1D466" d="M21 287Q21 301 36 335T84 406T158 442Q199 442 224 419T250 355Q248 336 247 334Q247 331 231 288T198 191T182 105Q182 62 196 45T238 27Q261 27 281 38T312 61T339 94Q339 95 344 114T358 173T377 247Q415 397 419 404Q432 431 462 431Q475 431 483 424T494 412T496 403Q496 390 447 193T391 -23Q363 -106 294 -155T156 -205Q111 -205 77 -183T43 -117Q43 -95 50 -80T69 -58T89 -48T106 -45Q150 -45 150 -87Q150 -107 138 -122T115 -142T102 -147L99 -148Q101 -153 118 -160T152 -167H160Q177 -167 186 -165Q219 -156 247 -127T290 -65T313 -9T321 21L315 17Q309 13 296 6T270 -6Q250 -11 231 -11Q185 -11 150 11T104 82Q103 89 103 113Q103 170 138 262T173 379Q173 380 173 381Q173 390 173 393T169 400T158 404H154Q131 404 112 385T82 344T65 302T57 280Q55 278 41 278H27Q21 284 21 287Z"/><path id="MJX-19-TEX-N-2B" d="M56 237T56 250T70 270H369V420L370 570Q380 583 389 583Q402 583 409 568V270H707Q722 262 722 250T707 230H409V-68Q401 -82 391 -82H389H387Q375 -82 369 -68V230H70Q56 237 56 250Z"/><path id="MJX-19-TEX-I-1D451" d="M366 683Q367 683 438 688T511 694Q523 694 523 686Q523 679 450 384T375 83T374 68Q374 26 402 26Q411 27 422 35Q443 55 463 131Q469 151 473 152Q475 153 483 153H487H491Q506 153 506 145Q506 140 503 129Q490 79 473 48T445 8T417 -8Q409 -10 393 -10Q359 -10 336 5T306 36L300 51Q299 52 296 50Q294 48 292 46Q233 -10 172 -10Q117 -10 75 30T33 157Q33 205 53 255T101 341Q148 398 195 420T280 442Q336 442 364 400Q369 394 369 396Q370 400 396 505T424 616Q424 629 417 632T378 637H357Q351 643 351 645T353 664Q358 683 366 683ZM352 326Q329 405 277 405Q242 405 210 374T160 293Q131 214 119 129Q119 126 119 118T118 106Q118 61 136 44T179 26Q233 26 290 98L298 109L352 326Z"/><path id="MJX-19-TEX-N-29" d="M60 749L64 750Q69 750 74 750H86L114 726Q208 641 251 514T294 250Q294 182 284 119T261 12T224 -76T186 -143T145 -194T113 -227T90 -246Q87 -249 86 -250H74Q66 -250 63 -250T58 -247T55 -238Q56 -237 66 -225Q221 -64 221 250T66 725Q56 737 55 738Q55 746 60 749Z"/></defs><g stroke="currentColor" fill="currentColor" stroke-width="0" transform="scale(1,-1)"><g data-mml-node="math"><g data-mml-node="mi"><use data-c="1D716" xlink:href="#MJX-19-TEX-I-1D716"/></g><g data-mml-node="mo" transform="translate(406,0)"><use data-c="28" xlink:href="#MJX-19-TEX-N-28"/></g><g data-mml-node="mi" transform="translate(795,0)"><use data-c="1D466" xlink:href="#MJX-19-TEX-I-1D466"/></g><g data-mml-node="mo" transform="translate(1507.2,0)"><use data-c="2B" xlink:href="#MJX-19-TEX-N-2B"/></g><g data-mml-node="mi" transform="translate(2507.4,0)"><use data-c="1D451" xlink:href="#MJX-19-TEX-I-1D451"/></g><g data-mml-node="mi" transform="translate(3027.4,0)"><use data-c="1D466" xlink:href="#MJX-19-TEX-I-1D466"/></g><g data-mml-node="mo" transform="translate(3517.4,0)"><use data-c="29" xlink:href="#MJX-19-TEX-N-29"/></g><g data-mml-node="mo" transform="translate(4128.7,0)"><use data-c="2B" xlink:href="#MJX-19-TEX-N-2B"/></g><g data-mml-node="mi" transform="translate(5128.9,0)"><use data-c="1D466" xlink:href="#MJX-19-TEX-I-1D466"/></g><g data-mml-node="mo" transform="translate(5841.1,0)"><use data-c="2B" xlink:href="#MJX-19-TEX-N-2B"/></g><g data-mml-node="mi" transform="translate(6841.3,0)"><use data-c="1D451" xlink:href="#MJX-19-TEX-I-1D451"/></g><g data-mml-node="mi" transform="translate(7361.3,0)"><use data-c="1D466" xlink:href="#MJX-19-TEX-I-1D466"/></g></g></g></svg></mjx-container></div></div></div></foreignObject><text x="150" y="119" fill="light-dark(#000000, #ffffff)" font-family="&quot;Helvetica&quot;" font-size="12px" text-anchor="middle">$$\epsilon(y+dy)+y+dy$$</text></switch></g></g><g><rect x="480" y="280" width="480" height="120" fill="none" stroke="none" pointer-events="all"/></g><g><g transform="translate(-0.5 -0.5)scale(4)"><switch><foreignObject style="overflow: visible; text-align: left;" pointer-events="none" width="100%" height="100%" requiredFeatures="http://www.w3.org/TR/SVG11/feature#Extensibility"><div xmlns="http://www.w3.org/1999/xhtml" style="display: flex; align-items: unsafe center; justify-content: unsafe center; width: 1px; height: 1px; padding-top: 85px; margin-left: 180px;"><div style="box-sizing: border-box; font-size: 0; text-align: center; color: #000000; "><div style="display: inline-block; font-size: 12px; font-family: &quot;Helvetica&quot;; color: light-dark(#000000, #ffffff); line-height: 1.2; pointer-events: all; white-space: nowrap; "><mjx-container class="MathJax" jax="SVG" display="true"><svg xmlns="http://www.w3.org/2000/svg" width="7.662ex" height="2.262ex" role="img" focusable="false" viewBox="0 -750 3386.4 1000" xmlns:xlink="http://www.w3.org/1999/xlink" style="vertical-align: -0.566ex;"><defs><path id="MJX-20-TEX-I-1D716" d="M227 -11Q149 -11 95 41T40 174Q40 262 87 322Q121 367 173 396T287 430Q289 431 329 431H367Q382 426 382 411Q382 385 341 385H325H312Q191 385 154 277L150 265H327Q340 256 340 246Q340 228 320 219H138V217Q128 187 128 143Q128 77 160 52T231 26Q258 26 284 36T326 57T343 68Q350 68 354 58T358 39Q358 36 357 35Q354 31 337 21T289 0T227 -11Z"/><path id="MJX-20-TEX-N-28" d="M94 250Q94 319 104 381T127 488T164 576T202 643T244 695T277 729T302 750H315H319Q333 750 333 741Q333 738 316 720T275 667T226 581T184 443T167 250T184 58T225 -81T274 -167T316 -220T333 -241Q333 -250 318 -250H315H302L274 -226Q180 -141 137 -14T94 250Z"/><path id="MJX-20-TEX-I-1D466" d="M21 287Q21 301 36 335T84 406T158 442Q199 442 224 419T250 355Q248 336 247 334Q247 331 231 288T198 191T182 105Q182 62 196 45T238 27Q261 27 281 38T312 61T339 94Q339 95 344 114T358 173T377 247Q415 397 419 404Q432 431 462 431Q475 431 483 424T494 412T496 403Q496 390 447 193T391 -23Q363 -106 294 -155T156 -205Q111 -205 77 -183T43 -117Q43 -95 50 -80T69 -58T89 -48T106 -45Q150 -45 150 -87Q150 -107 138 -122T115 -142T102 -147L99 -148Q101 -153 118 -160T152 -167H160Q177 -167 186 -165Q219 -156 247 -127T290 -65T313 -9T321 21L315 17Q309 13 296 6T270 -6Q250 -11 231 -11Q185 -11 150 11T104 82Q103 89 103 113Q103 170 138 262T173 379Q173 380 173 381Q173 390 173 393T169 400T158 404H154Q131 404 112 385T82 344T65 302T57 280Q55 278 41 278H27Q21 284 21 287Z"/><path id="MJX-20-TEX-N-29" d="M60 749L64 750Q69 750 74 750H86L114 726Q208 641 251 514T294 250Q294 182 284 119T261 12T224 -76T186 -143T145 -194T113 -227T90 -246Q87 -249 86 -250H74Q66 -250 63 -250T58 -247T55 -238Q56 -237 66 -225Q221 -64 221 250T66 725Q56 737 55 738Q55 746 60 749Z"/><path id="MJX-20-TEX-N-2B" d="M56 237T56 250T70 270H369V420L370 570Q380 583 389 583Q402 583 409 568V270H707Q722 262 722 250T707 230H409V-68Q401 -82 391 -82H389H387Q375 -82 369 -68V230H70Q56 237 56 250Z"/></defs><g stroke="currentColor" fill="currentColor" stroke-width="0" transform="scale(1,-1)"><g data-mml-node="math"><g data-mml-node="mi"><use data-c="1D716" xlink:href="#MJX-20-TEX-I-1D716"/></g><g data-mml-node="mo" transform="translate(406,0)"><use data-c="28" xlink:href="#MJX-20-TEX-N-28"/></g><g data-mml-node="mi" transform="translate(795,0)"><use data-c="1D466" xlink:href="#MJX-20-TEX-I-1D466"/></g><g data-mml-node="mo" transform="translate(1285,0)"><use data-c="29" xlink:href="#MJX-20-TEX-N-29"/></g><g data-mml-node="mo" transform="translate(1896.2,0)"><use data-c="2B" xlink:href="#MJX-20-TEX-N-2B"/></g><g data-mml-node="mi" transform="translate(2896.4,0)"><use data-c="1D466" xlink:href="#MJX-20-TEX-I-1D466"/></g></g></g></svg></mjx-container></div></div></div></foreignObject><text x="180" y="89" fill="light-dark(#000000, #ffffff)" font-family="&quot;Helvetica&quot;" font-size="12px" text-anchor="middle">$$\epsilon(y)+y$$</text></switch></g></g><g><rect x="80" y="800" width="240" height="120" fill="none" stroke="none" pointer-events="all"/></g><g><g transform="translate(-0.5 -0.5)scale(4)"><switch><foreignObject style="overflow: visible; text-align: left;" pointer-events="none" width="100%" height="100%" requiredFeatures="http://www.w3.org/TR/SVG11/feature#Extensibility"><div xmlns="http://www.w3.org/1999/xhtml" style="display: flex; align-items: unsafe center; justify-content: unsafe center; width: 1px; height: 1px; padding-top: 215px; margin-left: 50px;"><div style="box-sizing: border-box; font-size: 0; text-align: center; color: #000000; "><div style="display: inline-block; font-size: 12px; font-family: &quot;Helvetica&quot;; color: light-dark(#000000, #ffffff); line-height: 1.2; pointer-events: all; white-space: nowrap; "><mjx-container class="MathJax" jax="SVG" display="true"><svg xmlns="http://www.w3.org/2000/svg" width="1.109ex" height="1.464ex" role="img" focusable="false" viewBox="0 -442 490 647" xmlns:xlink="http://www.w3.org/1999/xlink" style="vertical-align: -0.464ex;"><defs><path id="MJX-21-TEX-I-1D466" d="M21 287Q21 301 36 335T84 406T158 442Q199 442 224 419T250 355Q248 336 247 334Q247 331 231 288T198 191T182 105Q182 62 196 45T238 27Q261 27 281 38T312 61T339 94Q339 95 344 114T358 173T377 247Q415 397 419 404Q432 431 462 431Q475 431 483 424T494 412T496 403Q496 390 447 193T391 -23Q363 -106 294 -155T156 -205Q111 -205 77 -183T43 -117Q43 -95 50 -80T69 -58T89 -48T106 -45Q150 -45 150 -87Q150 -107 138 -122T115 -142T102 -147L99 -148Q101 -153 118 -160T152 -167H160Q177 -167 186 -165Q219 -156 247 -127T290 -65T313 -9T321 21L315 17Q309 13 296 6T270 -6Q250 -11 231 -11Q185 -11 150 11T104 82Q103 89 103 113Q103 170 138 262T173 379Q173 380 173 381Q173 390 173 393T169 400T158 404H154Q131 404 112 385T82 344T65 302T57 280Q55 278 41 278H27Q21 284 21 287Z"/></defs><g stroke="currentColor" fill="currentColor" stroke-width="0" transform="scale(1,-1)"><g data-mml-node="math"><g data-mml-node="mi"><use data-c="1D466" xlink:href="#MJX-21-TEX-I-1D466"/></g></g></g></svg></mjx-container></div></div></div></foreignObject><text x="50" y="219" fill="light-dark(#000000, #ffffff)" font-family="&quot;Helvetica&quot;" font-size="12px" text-anchor="middle">$$y$$</text></switch></g></g><g><rect x="720" y="800" width="240" height="120" fill="none" stroke="none" pointer-events="all"/></g><g><g transform="translate(-0.5 -0.5)scale(4)"><switch><foreignObject style="overflow: visible; text-align: left;" pointer-events="none" width="100%" height="100%" requiredFeatures="http://www.w3.org/TR/SVG11/feature#Extensibility"><div xmlns="http://www.w3.org/1999/xhtml" style="display: flex; align-items: unsafe center; justify-content: unsafe center; width: 1px; height: 1px; padding-top: 215px; margin-left: 210px;"><div style="box-sizing: border-box; font-size: 0; text-align: center; color: #000000; "><div style="display: inline-block; font-size: 12px; font-family: &quot;Helvetica&quot;; color: light-dark(#000000, #ffffff); line-height: 1.2; pointer-events: all; white-space: nowrap; "><mjx-container class="MathJax" jax="SVG" display="true"><svg xmlns="http://www.w3.org/2000/svg" width="1.109ex" height="1.464ex" role="img" focusable="false" viewBox="0 -442 490 647" xmlns:xlink="http://www.w3.org/1999/xlink" style="vertical-align: -0.464ex;"><defs><path id="MJX-22-TEX-I-1D466" d="M21 287Q21 301 36 335T84 406T158 442Q199 442 224 419T250 355Q248 336 247 334Q247 331 231 288T198 191T182 105Q182 62 196 45T238 27Q261 27 281 38T312 61T339 94Q339 95 344 114T358 173T377 247Q415 397 419 404Q432 431 462 431Q475 431 483 424T494 412T496 403Q496 390 447 193T391 -23Q363 -106 294 -155T156 -205Q111 -205 77 -183T43 -117Q43 -95 50 -80T69 -58T89 -48T106 -45Q150 -45 150 -87Q150 -107 138 -122T115 -142T102 -147L99 -148Q101 -153 118 -160T152 -167H160Q177 -167 186 -165Q219 -156 247 -127T290 -65T313 -9T321 21L315 17Q309 13 296 6T270 -6Q250 -11 231 -11Q185 -11 150 11T104 82Q103 89 103 113Q103 170 138 262T173 379Q173 380 173 381Q173 390 173 393T169 400T158 404H154Q131 404 112 385T82 344T65 302T57 280Q55 278 41 278H27Q21 284 21 287Z"/></defs><g stroke="currentColor" fill="currentColor" stroke-width="0" transform="scale(1,-1)"><g data-mml-node="math"><g data-mml-node="mi"><use data-c="1D466" xlink:href="#MJX-22-TEX-I-1D466"/></g></g></g></svg></mjx-container></div></div></div></foreignObject><text x="210" y="219" fill="light-dark(#000000, #ffffff)" font-family="&quot;Helvetica&quot;" font-size="12px" text-anchor="middle">$$y$$</text></switch></g></g><g><path d="M 320 140 L 200 140" fill="none" stroke="#000000" stroke-width="4" stroke-miterlimit="10" stroke-dasharray="12 12" pointer-events="stroke" style="stroke: light-dark(rgb(0, 0, 0), rgb(255, 255, 255));"/></g><g><path d="M 960 140 L 840 140" fill="none" stroke="#000000" stroke-width="4" stroke-miterlimit="10" stroke-dasharray="12 12" pointer-events="stroke" style="stroke: light-dark(rgb(0, 0, 0), rgb(255, 255, 255));"/></g><g><rect x="0" y="80" width="240" height="120" fill="none" stroke="none" pointer-events="all"/></g><g><g transform="translate(-0.5 -0.5)scale(4)"><switch><foreignObject style="overflow: visible; text-align: left;" pointer-events="none" width="100%" height="100%" requiredFeatures="http://www.w3.org/TR/SVG11/feature#Extensibility"><div xmlns="http://www.w3.org/1999/xhtml" style="display: flex; align-items: unsafe center; justify-content: unsafe center; width: 1px; height: 1px; padding-top: 35px; margin-left: 30px;"><div style="box-sizing: border-box; font-size: 0; text-align: center; color: #000000; "><div style="display: inline-block; font-size: 12px; font-family: &quot;Helvetica&quot;; color: light-dark(#000000, #ffffff); line-height: 1.2; pointer-events: all; white-space: nowrap; "><mjx-container class="MathJax" jax="SVG" display="true"><svg xmlns="http://www.w3.org/2000/svg" width="1.131ex" height="1.557ex" role="img" focusable="false" viewBox="0 -666 500 688" xmlns:xlink="http://www.w3.org/1999/xlink" style="vertical-align: -0.05ex;"><defs><path id="MJX-23-TEX-N-30" d="M96 585Q152 666 249 666Q297 666 345 640T423 548Q460 465 460 320Q460 165 417 83Q397 41 362 16T301 -15T250 -22Q224 -22 198 -16T137 16T82 83Q39 165 39 320Q39 494 96 585ZM321 597Q291 629 250 629Q208 629 178 597Q153 571 145 525T137 333Q137 175 145 125T181 46Q209 16 250 16Q290 16 318 46Q347 76 354 130T362 333Q362 478 354 524T321 597Z"/></defs><g stroke="currentColor" fill="currentColor" stroke-width="0" transform="scale(1,-1)"><g data-mml-node="math"><g data-mml-node="mn"><use data-c="30" xlink:href="#MJX-23-TEX-N-30"/></g></g></g></svg></mjx-container></div></div></div></foreignObject><text x="30" y="39" fill="light-dark(#000000, #ffffff)" font-family="&quot;Helvetica&quot;" font-size="12px" text-anchor="middle">$$0$$</text></switch></g></g><g><rect x="640" y="80" width="240" height="120" fill="none" stroke="none" pointer-events="all"/></g><g><g transform="translate(-0.5 -0.5)scale(4)"><switch><foreignObject style="overflow: visible; text-align: left;" pointer-events="none" width="100%" height="100%" requiredFeatures="http://www.w3.org/TR/SVG11/feature#Extensibility"><div xmlns="http://www.w3.org/1999/xhtml" style="display: flex; align-items: unsafe center; justify-content: unsafe center; width: 1px; height: 1px; padding-top: 35px; margin-left: 190px;"><div style="box-sizing: border-box; font-size: 0; text-align: center; color: #000000; "><div style="display: inline-block; font-size: 12px; font-family: &quot;Helvetica&quot;; color: light-dark(#000000, #ffffff); line-height: 1.2; pointer-events: all; white-space: nowrap; "><mjx-container class="MathJax" jax="SVG" display="true"><svg xmlns="http://www.w3.org/2000/svg" width="1.131ex" height="1.557ex" role="img" focusable="false" viewBox="0 -666 500 688" xmlns:xlink="http://www.w3.org/1999/xlink" style="vertical-align: -0.05ex;"><defs><path id="MJX-24-TEX-N-30" d="M96 585Q152 666 249 666Q297 666 345 640T423 548Q460 465 460 320Q460 165 417 83Q397 41 362 16T301 -15T250 -22Q224 -22 198 -16T137 16T82 83Q39 165 39 320Q39 494 96 585ZM321 597Q291 629 250 629Q208 629 178 597Q153 571 145 525T137 333Q137 175 145 125T181 46Q209 16 250 16Q290 16 318 46Q347 76 354 130T362 333Q362 478 354 524T321 597Z"/></defs><g stroke="currentColor" fill="currentColor" stroke-width="0" transform="scale(1,-1)"><g data-mml-node="math"><g data-mml-node="mn"><use data-c="30" xlink:href="#MJX-24-TEX-N-30"/></g></g></g></svg></mjx-container></div></div></div></foreignObject><text x="190" y="39" fill="light-dark(#000000, #ffffff)" font-family="&quot;Helvetica&quot;" font-size="12px" text-anchor="middle">$$0$$</text></switch></g></g></g><switch><g requiredFeatures="http://www.w3.org/TR/SVG11/feature#Extensibility"/><a transform="translate(0,-5)" xlink:href="https://www.drawio.com/doc/faq/svg-export-text-problems" target="_blank"><text text-anchor="middle" font-size="10px" x="50%" y="100%">Text is not SVG - cannot display</text></a></switch></svg>